<svg xmlns="http://www.w3.org/2000/svg" viewBox="0 0 952.7 175.18"><defs><style>.cls-1{fill:#b3dac6;}</style></defs><title>logo</title><g id="Layer_2" data-name="Layer 2"><g id="Layer_1-2" data-name="Layer 1"><circle class="cls-1" cx="39" cy="136.18" r="39"/><circle class="cls-1" cx="39.5" cy="39.18" r="39"/><path class="cls-1" d="M135,0H92.7V170.12h28.19V28.2H135a14.11,14.11,0,0,1,14.1,14.1v84.59A14.11,14.11,0,0,1,135,141v28.2a42.34,42.34,0,0,0,42.3-42.29V42.3A42.35,42.35,0,0,0,135,0Z"/><path class="cls-1" d="M233.68,0h-42.3V126.89a42.3,42.3,0,0,0,84.59,0V42.3A42.34,42.34,0,0,0,233.68,0Zm14.1,126.89a14.1,14.1,0,0,1-28.2,0V28.2h14.1a14.12,14.12,0,0,1,14.1,14.1Z"/><path class="cls-1" d="M431.06,0h-42.3V126.89a42.3,42.3,0,0,0,84.59,0V42.3A42.34,42.34,0,0,0,431.06,0Zm14.09,126.89a14.1,14.1,0,0,1-28.19,0V28.2h14.1a14.11,14.11,0,0,1,14.09,14.1Z"/><path class="cls-1" d="M332.37,0a42.35,42.35,0,0,0-42.3,42.3V169.18h28.2V42.3a14.1,14.1,0,0,1,28.2,0V169.18h28.19V42.3A42.34,42.34,0,0,0,332.37,0Z"/><path class="cls-1" d="M543.84,57.33H572A56.46,56.46,0,0,0,515.65.94h-28.2V127.83a42.3,42.3,0,0,0,84.59,0V85.53H529.75v28.2h14.09v14.1a14.1,14.1,0,0,1-28.19,0V29.14A28.21,28.21,0,0,1,543.84,57.33Z"/><polygon class="cls-1" points="642.53 70.49 614.34 70.49 614.34 0.94 586.14 0.94 586.14 170.12 614.34 170.12 614.34 98.69 642.53 98.69 642.53 169.18 670.73 169.18 670.73 0 642.53 0 642.53 70.49"/><polygon class="cls-1" points="924.5 72.37 896.3 72.37 896.3 2.82 868.11 2.82 868.11 172 896.3 172 896.3 100.57 924.5 100.57 924.5 171.06 952.7 171.06 952.7 1.88 924.5 1.88 924.5 72.37"/><rect class="cls-1" x="683.89" y="0.94" width="86.47" height="28.2"/><rect class="cls-1" x="713.02" y="43.23" width="28.2" height="126.89"/><rect class="cls-1" x="825.81" y="71.43" width="29.14" height="28.2"/><polygon class="cls-1" points="810.77 29.14 810.77 143.73 854.01 143.73 854.01 171.93 782.58 171.93 782.58 0.94 854.01 0.94 854.01 29.14 810.77 29.14"/></g></g></svg>