<svg xmlns="http://www.w3.org/2000/svg" viewBox="0 0 860 172"><defs><style>.cls-1{fill:#b3dac6;}</style></defs><title>logo2</title><g id="Layer_2" data-name="Layer 2"><g id="Layer_1-2" data-name="Layer 1"><path class="cls-1" d="M42.3,0H0V170.12H28.2V28.2H42.3A14.11,14.11,0,0,1,56.39,42.3v84.59A14.1,14.1,0,0,1,42.3,141v28.2a42.34,42.34,0,0,0,42.29-42.29V42.3A42.34,42.34,0,0,0,42.3,0Z"/><path class="cls-1" d="M141,0H98.69V126.89a42.3,42.3,0,0,0,84.59,0V42.3A42.35,42.35,0,0,0,141,0Zm14.1,126.89a14.1,14.1,0,0,1-28.19,0V28.2H141a14.11,14.11,0,0,1,14.1,14.1Z"/><path class="cls-1" d="M338.36,0H296.07V126.89a42.3,42.3,0,0,0,84.59,0V42.3A42.35,42.35,0,0,0,338.36,0Zm14.1,126.89a14.1,14.1,0,0,1-28.2,0V28.2h14.1a14.12,14.12,0,0,1,14.1,14.1Z"/><path class="cls-1" d="M239.67,0a42.34,42.34,0,0,0-42.29,42.3V169.18h28.19V42.3a14.1,14.1,0,0,1,28.2,0V169.18H282V42.3A42.35,42.35,0,0,0,239.67,0Z"/><path class="cls-1" d="M451.15,57.33h28.19A56.45,56.45,0,0,0,423,.94h-28.2V127.83a42.3,42.3,0,0,0,84.59,0V85.53H437.05v28.2h14.1v14.1a14.1,14.1,0,0,1-28.2,0V29.14A28.22,28.22,0,0,1,451.15,57.33Z"/><polygon class="cls-1" points="549.84 70.49 521.64 70.49 521.64 0.94 493.44 0.94 493.44 170.12 521.64 170.12 521.64 98.69 549.84 98.69 549.84 169.18 578.03 169.18 578.03 0 549.84 0 549.84 70.49"/><polygon class="cls-1" points="831.8 72.37 803.61 72.37 803.61 2.82 775.41 2.82 775.41 172 803.61 172 803.61 100.57 831.8 100.57 831.8 171.06 860 171.06 860 1.88 831.8 1.88 831.8 72.37"/><rect class="cls-1" x="591.19" y="0.94" width="86.47" height="28.2"/><rect class="cls-1" x="620.33" y="43.23" width="28.2" height="126.89"/><rect class="cls-1" x="733.11" y="71.43" width="29.14" height="28.2"/><polygon class="cls-1" points="718.08 29.14 718.08 143.73 761.31 143.73 761.31 171.93 689.88 171.93 689.88 0.94 761.31 0.94 761.31 29.14 718.08 29.14"/></g></g></svg>